<svg width="96" height="96" xmlns="http://www.w3.org/2000/svg" xmlns:xlink="http://www.w3.org/1999/xlink" xml:space="preserve" overflow="hidden"><defs><clipPath id="clip0"><rect x="271" y="451" width="96" height="96"/></clipPath></defs><g clip-path="url(#clip0)" transform="translate(-271 -451)"><path d="M354 478.031C353.23 468.031 346.157 460.422 338.2 461.031 330.243 461.64 324.429 470.25 325.2 480.25 325.971 490.25 333.043 497.859 341 497.25 348.957 496.641 354.774 488.031 354 478.031ZM344.543 491.9C343.396 492.675 342.069 493.143 340.689 493.257 340.558 493.268 340.427 493.269 340.297 493.272 341.363 488.484 339.456 484.063 337.449 479.43 335.676 475.34 333.875 471.156 334.2 466.735 335.441 465.757 336.94 465.161 338.514 465.022L338.562 465.022C337.371 469.193 339.135 473.264 341.119 477.842 342.963 482.094 344.969 486.759 344.543 491.9Z"/><path d="M341.541 511.108C334.569 503.9 324.268 502.551 318.533 508.1 312.798 513.649 313.802 523.987 320.775 531.2 327.748 538.413 338.048 539.75 343.783 534.2 349.518 528.65 348.514 518.317 341.541 511.108ZM341 531.329C340.9 531.422 340.8 531.495 340.7 531.581 338.466 527.219 334.18 525.033 329.682 522.748 325.707 520.729 321.651 518.655 319.082 515.048 319.414 513.503 320.189 512.088 321.312 510.976 321.323 510.965 321.336 510.957 321.348 510.946 323.091 514.917 327.048 516.926 331.494 519.186 335.621 521.286 340.134 523.586 343.087 527.808 342.708 529.143 341.989 530.356 341 531.329Z"/><path d="M308.425 477.956C301.71 473.648 291.877 477 286.462 485.441 281.047 493.882 282.1 504.218 288.815 508.526 295.53 512.834 305.363 509.482 310.779 501.04 316.195 492.598 315.14 482.263 308.425 477.956ZM300.614 493.119C299.523 497.613 298.314 502.531 294.893 506.372 293.503 506.318 292.152 505.899 290.975 505.159 290.865 505.088 290.767 505.004 290.661 504.928 294.393 501.751 295.537 497.077 296.728 492.174 297.781 487.838 298.868 483.41 301.798 480.074L301.841 480.074C303.405 480.05 304.943 480.483 306.265 481.32 306.278 481.329 306.29 481.34 306.303 481.348 302.84 483.96 301.792 488.271 300.614 493.119Z"/></g></svg>