<svg width="96" height="96" xmlns="http://www.w3.org/2000/svg" xmlns:xlink="http://www.w3.org/1999/xlink" xml:space="preserve" overflow="hidden"><defs><clipPath id="clip0"><rect x="495" y="495" width="96" height="96"/></clipPath></defs><g clip-path="url(#clip0)" transform="translate(-495 -495)"><path d="M574.2 554.2C574.2 546 567.8 539.4 559.7 539L559.7 533 511.7 533 511.7 579C511.7 581.2 513.5 583 515.7 583L555.7 583C557.9 583 559.7 581.2 559.7 579L559.7 569.5C567.8 569.1 574.2 562.4 574.2 554.2ZM559.8 563.5 559.8 545C564.6 545.4 568.3 549.4 568.3 554.2 568.3 559 564.5 563.1 559.8 563.5Z"/><path d="M533.9 513.5C534.5 514.1 534.8 514.8 534.8 515.6 534.8 516.4 534.5 517.2 533.9 517.7 533.1 518.5 533.1 519.7 533.9 520.5 534.3 520.9 534.8 521.1 535.3 521.1 535.8 521.1 536.3 520.9 536.7 520.5 538 519.2 538.8 517.4 538.8 515.5 538.8 513.6 538.1 511.9 536.7 510.6 536.7 510.6 536.7 510.6 536.7 510.6 535.5 509.4 535.5 507.5 536.7 506.4 537.5 505.6 537.5 504.4 536.7 503.6 535.9 502.8 534.7 502.8 533.9 503.6 531.1 506.3 531.1 510.8 533.9 513.5 533.9 513.5 533.9 513.5 533.9 513.5Z"/><path d="M544.8 519.3C546 520.5 546 522.4 544.8 523.5 544 524.3 544 525.5 544.8 526.3 545.2 526.7 545.7 526.9 546.2 526.9 546.7 526.9 547.2 526.7 547.6 526.3 550.3 523.6 550.3 519.1 547.6 516.4 547.6 516.4 547.6 516.4 547.6 516.4 547 515.8 546.7 515.1 546.7 514.3 546.7 513.5 547 512.7 547.6 512.2 548.4 511.4 548.4 510.2 547.6 509.4 546.8 508.6 545.6 508.6 544.8 509.4 543.5 510.7 542.7 512.5 542.7 514.4 542.8 516.3 543.5 518 544.8 519.3 544.8 519.3 544.8 519.3 544.8 519.3Z"/><path d="M523.9 519.3C524.5 519.9 524.8 520.6 524.8 521.4 524.8 522.2 524.5 523 523.9 523.5 523.1 524.3 523.1 525.5 523.9 526.3 524.3 526.7 524.8 526.9 525.3 526.9 525.8 526.9 526.3 526.7 526.7 526.3 528 525 528.8 523.2 528.8 521.3 528.8 519.4 528.1 517.7 526.7 516.3L526.7 516.3C525.5 515.1 525.5 513.2 526.7 512.1 527.5 511.3 527.5 510.1 526.7 509.3 525.9 508.5 524.7 508.5 523.9 509.3 521.1 512.2 521.1 516.6 523.9 519.3 523.9 519.3 523.9 519.3 523.9 519.3Z"/></g></svg>