<svg width="96" height="96" xmlns="http://www.w3.org/2000/svg" xmlns:xlink="http://www.w3.org/1999/xlink" xml:space="preserve" overflow="hidden"><defs><clipPath id="clip0"><rect x="376" y="391" width="96" height="96"/></clipPath></defs><g clip-path="url(#clip0)" transform="translate(-376 -391)"><path d="M448.539 412C446.882 406.732 441.267 403.805 435.999 405.462 432.882 406.443 430.441 408.884 429.461 412L390 412 390 418 429.461 418C431.118 423.268 436.733 426.195 442.001 424.538 445.118 423.557 447.559 421.116 448.539 418L458 418 458 412ZM439 419C436.791 419 435 417.209 435 415 435 412.791 436.791 411 439 411 441.209 411 443 412.791 443 415 443 417.209 441.209 419 439 419Z"/><path d="M435 453C430.635 453.006 426.776 455.837 425.461 460L390 460 390 466 425.461 466C427.118 471.268 432.733 474.195 438.001 472.538 441.118 471.557 443.559 469.116 444.539 466L458 466 458 460 444.539 460C443.224 455.837 439.365 453.006 435 453ZM435 467C432.791 467 431 465.209 431 463 431 460.791 432.791 459 435 459 437.209 459 439 460.791 439 463 439 465.209 437.209 467 435 467Z"/><path d="M410 429C405.635 429.006 401.776 431.837 400.461 436L390 436 390 442 400.461 442C402.118 447.268 407.733 450.195 413.001 448.538 416.118 447.557 418.559 445.116 419.539 442L458 442 458 436 419.539 436C418.224 431.837 414.365 429.006 410 429ZM410 443C407.791 443 406 441.209 406 439 406 436.791 407.791 435 410 435 412.209 435 414 436.791 414 439 414 441.209 412.209 443 410 443Z"/></g></svg>